<svg width="336" height="692" viewBox="0 0 336 692" fill="none" xmlns="http://www.w3.org/2000/svg">
<path d="M31.2152 248.164C34.9034 241.11 38.7006 233.872 40.7876 225.916C41.7393 222.267 42.3044 218.446 42.3044 214.624C42.3044 210.098 41.5113 205.567 39.6176 201.363C37.1985 195.994 34.8092 190.968 32.9651 185.847C31.121 180.726 29.8124 175.511 29.5001 169.707C29.4654 169.077 29.4505 168.443 29.4505 167.813C29.4505 162.038 30.8385 156.248 33.2824 150.899C35.7263 145.555 39.231 140.662 43.4099 136.692C46.7907 133.475 50.7217 130.684 54.6181 127.709C58.5144 124.73 62.376 121.562 65.5387 117.517C68.1313 114.211 69.8514 110.592 70.9073 106.845C71.9682 103.097 72.3796 99.2156 72.3796 95.3192C72.3796 92.2061 72.1169 89.0831 71.7104 86.0047C71.1354 81.6077 70.8032 77.1512 70.8032 72.7145C70.8032 62.3094 72.6126 52.0431 77.2129 42.9417C83.1367 31.2131 92.3322 22.5677 103.283 16.6587C114.233 10.7597 126.928 7.62677 139.728 7.01703C141.21 6.94763 142.692 6.91295 144.174 6.91295C159.036 6.91295 173.769 10.3929 188.085 15.588C202.401 20.7831 216.286 27.6935 229.453 34.4898C237.622 38.7083 244.859 42.4708 251.12 47.1851C257.381 51.8993 262.7 57.5406 267.162 65.6654C272.858 76.0457 275.872 87.9132 275.872 99.7559C275.872 103.399 275.584 107.038 275.009 110.632C274.479 113.928 273.72 117.389 273.086 120.898C272.451 124.408 271.941 127.967 271.941 131.487C271.941 133.683 272.139 135.864 272.644 138C273.15 140.137 273.968 142.229 275.182 144.207C276.248 145.957 277.547 147.469 278.975 148.812C281.121 150.825 283.555 152.461 286.019 153.968C288.493 155.475 290.996 156.853 293.306 158.315C302.155 163.907 309.283 171.952 314.2 181.227C319.113 190.502 321.805 200.996 321.805 211.436C321.805 216.859 321.081 222.263 319.574 227.482C318.825 230.07 317.889 232.663 317.001 235.32C316.109 237.972 315.266 240.693 314.726 243.544C314.3 245.804 314.096 248.094 314.096 250.385C314.096 256.323 315.484 262.247 318.067 267.581C318.905 269.311 319.971 270.833 321.066 272.236C322.712 274.338 324.422 276.202 325.656 278.056C326.271 278.983 326.772 279.905 327.114 280.841C327.456 281.783 327.649 282.745 327.649 283.806C327.649 284.525 327.56 285.298 327.352 286.141L330.723 286.969C330.99 285.873 331.119 284.817 331.119 283.806C331.124 281.813 330.619 280.014 329.855 278.417C328.7 276.013 327.005 274.015 325.384 272.052C323.758 270.094 322.206 268.176 321.19 266.069C318.835 261.201 317.561 255.783 317.566 250.385C317.566 248.308 317.755 246.23 318.136 244.188C318.627 241.595 319.415 239.023 320.288 236.42C321.16 233.818 322.117 231.18 322.905 228.444C324.506 222.897 325.275 217.167 325.275 211.436C325.275 200.401 322.439 189.372 317.264 179.601C312.089 169.835 304.569 161.329 295.16 155.38C291.918 153.338 288.517 151.548 285.508 149.526C284.001 148.52 282.598 147.454 281.354 146.284C280.105 145.109 279.024 143.835 278.142 142.398C277.131 140.752 276.456 139.022 276.025 137.202C275.594 135.383 275.411 133.47 275.411 131.487C275.411 128.304 275.881 124.938 276.501 121.513C277.116 118.092 277.884 114.613 278.434 111.182C279.039 107.4 279.342 103.578 279.342 99.7559C279.337 87.3233 276.184 74.9006 270.201 63.9948C265.511 55.4387 259.786 49.3563 253.202 44.409C246.624 39.4618 239.213 35.6249 231.044 31.4063C217.848 24.5952 203.834 17.6155 189.27 12.3262C174.706 7.0419 159.581 3.44293 144.174 3.44293C142.643 3.44293 141.101 3.47769 139.564 3.55205C126.314 4.18657 113.123 7.41858 101.637 13.6051C90.156 19.7917 80.3854 28.9575 74.1146 41.3802C69.207 51.0963 67.3332 61.9178 67.3332 72.7145C67.3332 77.3247 67.6752 81.9299 68.2701 86.4558C68.6617 89.4251 68.9096 92.3994 68.9096 95.3192C68.9096 98.9727 68.5229 102.532 67.5712 105.903C66.6144 109.269 65.0975 112.446 62.8073 115.381C59.9569 119.034 56.3432 122.028 52.5113 124.953C48.6843 127.883 44.6492 130.733 41.0205 134.174C36.5095 138.461 32.7619 143.706 30.1296 149.456C27.4974 155.212 25.9805 161.478 25.9805 167.813C25.9805 168.507 26.0003 169.201 26.035 169.895C26.3671 176.111 27.7799 181.688 29.7033 187.022C31.6267 192.361 34.0557 197.462 36.455 202.791C38.1107 206.464 38.8344 210.499 38.8344 214.624C38.8344 218.103 38.3188 221.638 37.4266 225.039C35.4833 232.484 31.8349 239.504 28.1418 246.558L31.2152 248.164" fill="#192C4A"/>
<path d="M204.811 320.553C220.158 329.233 236.215 336.838 253.198 341.725C266.602 345.582 280.765 347.719 294.521 345.409C308.272 343.099 321.607 335.901 329.181 324.192C341.832 304.631 335.437 277.763 321.78 258.886C316.942 252.194 311.093 245.705 309.611 237.585C307.985 228.722 311.901 219.913 313.581 211.059C316.461 195.89 312.416 179.546 302.794 167.476C292.885 155.043 277.339 146.725 271.564 131.908C266.042 117.745 271.113 101.788 269.69 86.654C268.228 71.0786 259.231 56.6085 248.33 45.8019C234.554 32.1449 216.257 26.8606 201.762 14.9584C192.081 7.00213 180.818 2.25812 168.371 0.706522C131.4 -3.90365 87.2713 14.1107 77.5801 53.0295C73.3714 69.9235 78.7648 89.3904 71.5422 105.427C66.6297 116.333 56.4278 123.778 49.0862 133.227C38.4878 146.879 34.0958 165.171 37.3477 182.149C39.2909 192.281 43.8168 202.29 42.29 212.497C40.2427 226.203 28.0034 235.999 22.6546 248.783C15.3527 266.243 22.5307 287.484 36.5744 300.164C50.618 312.85 70.1443 317.99 89.0659 318.392C99.6643 318.615 110.292 317.49 120.608 315.041C135.807 311.437 150.946 304.789 166.834 305.335C182.806 305.88 191.233 312.88 204.811 320.553" fill="#192C4A"/>
<path d="M209.316 275.895C222.011 278.661 236.05 274.026 244.606 264.245C253.162 254.47 255.888 239.94 251.462 227.721C246.108 212.958 231.707 202.623 227.36 187.533C222.556 170.852 224.965 153.284 212.121 139.756C204.175 131.388 193.567 126.049 182.805 121.885C170.407 117.082 157.488 113.621 144.347 111.574C138.691 110.692 132.415 110.201 127.716 113.473C123.646 116.303 121.747 121.3 120.394 126.074C118.069 134.278 116.681 142.745 116.274 151.266C115.794 161.285 116.577 171.749 112.497 180.91C106.702 193.938 92.247 201.601 86.7892 214.773C81.2074 228.236 87.042 244.615 98.1609 254.048C109.275 263.477 124.543 266.793 139.107 266.273C149.022 265.921 159.164 264.007 169.053 265.584C182.706 267.765 195.847 272.965 209.316 275.895" fill="#16273D"/>
<path d="M292.94 460.797C282.252 459.206 277.008 445.485 271.793 433.776C263.757 415.727 256.857 396.681 250.407 377.923C241.257 351.328 235.377 323.687 229.518 296.13C226.207 280.545 216.312 245.72 230.123 233.253C250.383 240.054 263.946 246.702 274.906 256.899C288.647 269.679 295.691 285.898 302.666 302.991C311.45 324.53 319.937 346.311 325.598 368.971C330.015 386.668 335.096 405.386 333.678 424.01C332.161 443.933 322.678 465.214 292.94 460.797" fill="white"/>
<path d="M41.9923 460.797C51.0044 454.834 57.9296 445.485 63.1396 433.776C71.1751 415.727 78.0755 396.681 84.5298 377.923C93.6757 351.328 99.5549 323.687 105.414 296.13C108.726 280.545 119.195 246.063 105.385 233.6C85.1246 240.401 70.9917 246.702 60.0265 256.899C46.2852 269.678 39.241 285.898 32.2712 302.991C23.4822 324.53 14.9955 346.311 9.33935 368.971C4.91756 386.668 -1.20952 419.301 0.208231 437.925C1.72513 457.848 10.2366 481.821 41.9923 460.797" fill="white"/>
<path d="M229.548 121.895C244.171 115.302 246.992 135.061 243.834 144.539C242.531 148.455 240.657 152.228 237.925 155.326C234.247 159.49 224.135 166.098 219.009 160.833C216.684 158.444 216.709 154.696 216.892 151.365C217.368 142.437 219.638 126.361 229.548 121.895" fill="#E57E67"/>
<path d="M106.083 121.895C91.4592 115.302 88.6336 135.061 91.7913 144.539C93.0951 148.455 94.9738 152.228 97.7052 155.326C101.383 159.49 111.496 166.098 116.622 160.833C118.947 158.444 118.917 154.696 118.739 151.365C118.258 142.437 115.992 126.361 106.083 121.895" fill="#E57E67"/>
<path d="M305.342 523.128C295.15 421.026 285.092 361.306 274.018 289.695C271.807 275.394 267.494 260.036 261.466 252.715C252.087 241.323 238.495 236.376 225.135 231.379C208.737 225.252 191.634 220.538 174.076 219.625C172.292 219.536 170.517 219.492 168.737 219.482V219.115L168.564 219.477H168.509H168.455L168.281 219.115V219.482H168.207H168.128V219.115L167.954 219.477H167.9H167.845L167.671 219.115V219.482C165.892 219.492 164.117 219.536 162.338 219.625C144.774 220.538 127.677 225.252 111.274 231.379C97.9141 236.376 84.3216 241.323 74.9426 252.715C68.9147 260.036 64.6019 275.394 62.391 289.695C51.3167 361.306 41.2586 421.026 31.0666 523.128C24.9098 584.845 17.4642 674.595 20.4286 678.848C26.1045 686.988 91.4549 688.881 100.234 689.709C114.645 691.063 129.139 691.162 143.614 691.261C151.794 691.315 159.998 691.32 168.207 691.261C176.411 691.32 184.615 691.315 192.794 691.261C207.269 691.162 221.764 691.063 236.175 689.709C244.959 688.881 310.304 686.988 315.98 678.848C318.945 674.595 311.499 584.845 305.342 523.128Z" fill="white"/>
<path d="M224.675 226.496L168.094 203.951V203.183L110.69 226.05L167.658 402.868L224.675 226.496" fill="#2F998D"/>
<path d="M217.408 203.183C217.408 237.486 195.14 265.291 167.672 265.291C140.205 265.291 117.937 237.486 117.937 203.183C117.937 168.874 140.205 141.069 167.672 141.069C195.14 141.069 217.408 168.874 217.408 203.183Z" fill="#0C7B6E"/>
<path d="M209.118 203.183C209.118 231.766 190.564 254.94 167.672 254.94C144.784 254.94 126.225 231.766 126.225 203.183C126.225 174.595 144.784 151.42 167.672 151.42C190.564 151.42 209.118 174.595 209.118 203.183Z" fill="#F89D7D"/>
<path d="M248.934 235.002C246.951 241.63 244.948 248.253 242.911 254.861C240.888 261.474 238.831 268.077 236.774 274.68C234.722 281.287 232.625 287.876 230.553 294.474L224.257 314.243L224.064 314.852L223.419 314.942L213.53 316.34L203.635 317.718L203.967 315.67C208.706 318.01 213.46 320.33 218.189 322.69L219.181 323.186L218.685 324.172C214.521 332.406 210.387 340.66 206.198 348.883C202.009 357.112 197.835 365.341 193.607 373.55C189.403 381.764 185.15 389.959 180.897 398.153C176.628 406.337 172.355 414.521 168.003 422.661C171.934 414.308 175.944 405.995 179.955 397.682C183.985 389.374 188.02 381.07 192.1 372.792C196.15 364.499 200.259 356.235 204.354 347.961C208.449 339.688 212.598 331.444 216.717 323.181L217.213 324.663C212.469 322.333 207.745 319.963 203.006 317.614L199.838 316.042L203.338 315.566L213.237 314.228L223.137 312.909L222.304 313.608L228.832 293.913C231.038 287.36 233.21 280.797 235.435 274.248C237.656 267.695 239.872 261.146 242.123 254.603C244.363 248.06 246.634 241.526 248.934 235.002" fill="#EBF7F9"/>
<path d="M86.5317 235.002C88.8269 241.526 91.1022 248.06 93.3379 254.603C95.5885 261.146 97.8093 267.695 100.025 274.248C102.251 280.797 104.427 287.36 106.633 293.913L113.162 313.608L112.324 312.909L122.228 314.228L132.123 315.566L135.628 316.042L132.46 317.614C127.721 319.963 122.997 322.333 118.248 324.663L118.743 323.181C122.863 331.444 127.012 339.688 131.107 347.961C135.201 356.235 139.311 364.499 143.366 372.792C147.445 381.07 151.476 389.374 155.506 397.682C159.521 405.995 163.532 414.308 167.463 422.661C163.11 414.521 158.837 406.337 154.564 398.153C150.311 389.959 146.062 381.764 141.859 373.55C137.63 365.341 133.451 357.112 129.268 348.883C125.074 340.66 120.944 332.406 116.78 324.172L116.285 323.186L117.276 322.69C122.005 320.33 126.754 318.01 131.493 315.67L131.83 317.718L121.936 316.34L112.046 314.942L111.402 314.852L111.209 314.243L104.913 294.474C102.841 287.876 100.739 281.287 98.6917 274.68C96.6345 268.077 94.5772 261.474 92.5497 254.861C90.5173 248.253 88.5146 241.63 86.5317 235.002" fill="#EBF7F9"/>
<path d="M118.844 415.35C119.26 400.121 122.745 384.972 129.06 371.107C129.695 369.699 130.429 368.237 131.727 367.409C133.363 366.363 135.47 366.581 137.393 366.849C153.276 369.04 169.134 371.394 184.962 373.952C208.846 377.804 232.541 382.672 256.296 387.272C259.127 387.817 262.012 388.368 264.872 387.996C276.898 386.415 276.754 370.963 276.903 361.921C277.225 341.696 277.9 322.67 276.502 302.49C285.915 310.813 293.187 318.313 299.746 329.03C303.712 335.504 306.572 342.583 309.224 349.692C320.308 379.37 330.203 411.964 332.552 443.64C333.925 462.121 312.506 475.173 296.623 475.009C270.657 474.737 192.482 456.311 167.627 449.227C151.373 444.597 138.013 441.181 122.423 434.653C121.471 434.256 120.465 433.805 119.919 432.928C119.473 432.209 119.414 431.327 119.379 430.479C119.265 427.852 118.774 417.982 118.844 415.35" fill="#EBF7F9"/>
<path d="M215.995 430.206C215.306 414.987 211.548 399.903 204.985 386.151C204.321 384.759 203.567 383.311 202.254 382.503C200.598 381.492 198.496 381.745 196.578 382.047C165.268 386.945 78.6664 401.216 49.6917 414.055C31.8707 421.957 4.10556 439.629 2.83157 462.343C1.79056 480.843 23.4484 493.509 39.3213 493.058C65.2771 492.314 143.105 472.486 167.831 464.961C184.001 460.038 197.292 456.38 212.763 449.574C213.71 449.157 214.711 448.686 215.237 447.804C215.673 447.075 215.717 446.188 215.737 445.34C215.802 442.713 216.114 432.833 215.995 430.206" fill="#EBF7F9"/>
<path d="M104.161 108.971C104.418 96.4291 106.317 84.5567 109.688 74.7216C124.222 32.2932 177.552 22.5226 209.134 53.5793C244.354 88.2151 232.403 169.081 194.381 197.203C184.214 204.719 167.622 207.747 155.457 204.297C118.645 193.857 103.367 148.152 104.161 108.971Z" fill="#F89D7D"/>
<path d="M104.219 64.3519C115.665 20.9866 168.157 7.40884 201.89 36.1158C207.274 40.6963 211.006 46.1591 214.843 52.0036C218.1 56.9558 222.631 60.7084 225.506 66.1564C228.456 71.753 230.295 77.9396 230.905 84.2352C231.336 88.6818 232.813 96.8561 232.208 101.248C231.465 106.651 230.434 116.65 229.779 122.063C229.586 115.912 226.939 101.66 225.085 95.7854C222.844 88.6917 218.774 82.9959 213.163 78.1775C210.481 75.8774 207.527 73.9341 204.736 71.7778C203.873 71.1085 199.947 67.6286 197.89 64.0843C184.471 81.6773 161.752 88.6669 141.259 93.743C124.068 98.0012 105.543 118.132 104.447 121.459C104.229 117.24 101.567 74.4051 104.219 64.3519" fill="#E57E67"/>
<path d="M104.448 121.459C103.303 120.199 101.077 112.744 100.472 110.92C98.7222 105.64 96.5163 101.164 95.5447 95.6615C93.309 82.9463 90.647 82.4506 90.647 69.5173C90.9047 52.7026 99.0246 42.818 111.71 32.6508C123.23 23.4206 137.16 17.1794 151.749 14.8743C154.669 14.4133 157.608 14.111 160.558 13.9722C164.98 13.764 169.481 13.9176 173.714 15.2164C176.882 16.183 179.822 17.7644 182.741 19.3408C186.662 21.4526 190.598 23.5792 194.192 26.2114C200.062 30.5093 205.158 36.8248 211.681 40.0668C218.983 43.7004 226.379 45.5494 232.695 51.1163C238.049 55.8355 241.94 62.0617 244.726 68.6647C248.067 76.5813 244.394 82.2374 243.437 90.6844C242.649 97.6493 243.392 104.421 240.334 110.92C237.473 117.002 229.78 122.063 229.78 122.063C229.78 122.063 229.036 109.651 228.813 108.119C228.218 104.133 227.534 97.8029 224.788 89.3113C222.131 81.0179 216.876 75.9369 210.041 70.8756C207.299 68.8481 204.583 66.7463 202.273 64.2082C199.591 61.2587 198.57 58.1455 196.959 55.2257C193.95 61.9377 188.854 67.2122 182.419 71.0392C171.345 77.6173 158.739 80.7552 146.584 84.6714C134.994 88.4041 120.36 93.0143 113.723 104.074C107.204 114.92 104.448 121.459 104.448 121.459" fill="#192C4A"/>
<path d="M218.508 104.357C217.74 107.336 210.264 107.99 201.812 105.814C193.36 103.638 187.129 99.4589 187.898 96.4746C188.666 93.4954 196.141 92.8411 204.593 95.0173C213.045 97.1935 219.276 101.372 218.508 104.357Z" fill="#192C4A"/>
<path d="M177.432 22.6224C178.057 25.7305 178.2 28.9378 177.898 32.1005C177.591 35.2731 176.812 38.3912 175.712 41.3804C174.606 44.3745 173.144 47.2348 171.414 49.9166C169.684 52.6034 167.676 55.1167 165.441 57.4069C164.325 58.557 163.145 59.6426 161.916 60.6687C160.657 61.6552 159.432 62.6912 158.104 63.5835L157.127 64.2775L156.637 64.6245L156.136 64.9467L154.113 66.2406C153.439 66.6669 152.74 67.0486 152.051 67.4551L151.015 68.0598L149.964 68.625C144.353 71.6736 138.469 74.1175 132.639 76.5862C129.724 77.8156 126.819 79.0549 123.944 80.3487L121.803 81.3451L120.737 81.8408L119.681 82.3663C118.977 82.7182 118.268 83.0553 117.569 83.4172L115.497 84.5276C114.793 84.8795 114.149 85.3059 113.479 85.7024L112.478 86.3022C112.146 86.5055 111.809 86.6988 111.497 86.9318C110.223 87.8291 108.914 88.6718 107.709 89.6682C107.1 90.154 106.47 90.615 105.875 91.1206L104.11 92.6574C103.818 92.9151 103.516 93.168 103.228 93.4307L102.38 94.2436L100.685 95.8647C96.2682 100.301 92.2479 105.154 88.4953 110.201C84.7526 115.267 81.2727 120.532 77.8672 125.856L76.5932 127.853L75.9537 128.855L75.3539 129.856L74.1592 131.859L73.0785 133.926C72.9 134.273 72.7067 134.61 72.5481 134.967L72.0623 136.028C71.745 136.737 71.398 137.436 71.1056 138.159C70.5454 139.607 69.9357 141.044 69.4796 142.532C67.4571 148.431 66.4161 154.637 66.1236 160.858C65.9352 167.084 66.5202 173.355 68.1461 179.378C68.5179 180.895 68.9789 182.387 69.4697 183.879C69.9604 185.371 70.4908 186.859 71.0113 188.351C72.0573 191.335 73.1231 194.344 73.9807 197.437C74.8383 200.521 75.4778 203.718 75.5769 206.98C75.686 210.232 75.1556 213.553 73.9064 216.577C73.2867 218.089 72.5085 219.521 71.6459 220.895C70.7536 222.243 69.8018 223.547 68.7707 224.771C66.7234 227.235 64.4927 229.5 62.3611 231.82C61.2854 232.975 60.2444 234.155 59.2579 235.374L58.5292 236.291L57.8203 237.238C57.3444 237.868 56.8884 238.512 56.4224 239.152C54.5833 241.715 52.8533 244.362 51.1876 247.049C49.522 249.735 47.9209 252.467 46.3544 255.218C44.778 257.964 43.2264 260.725 41.6748 263.487C43.1322 260.671 44.5797 257.855 46.0619 255.054C47.554 252.259 49.0858 249.488 50.6869 246.746C52.2881 244.01 53.9537 241.308 55.7383 238.676C56.1845 238.017 56.6306 237.362 57.0916 236.713L57.7807 235.741L58.5044 234.78C59.476 233.511 60.5022 232.286 61.5531 231.096C63.65 228.707 65.8361 226.417 67.7842 223.968C68.7707 222.753 69.663 221.474 70.4958 220.171C71.2939 218.842 72.0028 217.474 72.558 216.041C73.6634 213.181 74.1245 210.108 73.9807 207.034C73.8469 203.961 73.1975 200.902 72.3201 197.908C70.5801 191.9 67.928 186.11 66.2723 179.884C64.5472 173.677 63.8879 167.213 64.0317 160.784C64.2845 154.359 65.3651 147.95 67.4273 141.847C67.8983 140.311 68.5179 138.824 69.0979 137.321C69.4003 136.573 69.7572 135.849 70.0794 135.116L70.5801 134.015C70.7437 133.648 70.9469 133.296 71.1254 132.939L72.2457 130.793L73.4751 128.711L74.0898 127.675L74.7292 126.669L76.0032 124.666C79.4386 119.327 82.9631 114.033 86.7603 108.917C90.5823 103.821 94.6571 98.8786 99.2177 94.3775L100.968 92.7317L101.845 91.9088C102.142 91.6362 102.45 91.3834 102.752 91.1206L104.581 89.5542C105.201 89.0436 105.85 88.5677 106.485 88.072C107.729 87.0607 109.092 86.1932 110.416 85.2811C110.743 85.0431 111.095 84.8448 111.442 84.6416L112.483 84.0219C113.177 83.6204 113.861 83.1792 114.575 82.8273L116.702 81.7119C117.411 81.35 118.134 81.0129 118.848 80.661L119.929 80.1405L121.014 79.6448C121.738 79.3176 122.462 78.9805 123.191 78.6633C126.11 77.3893 129.05 76.1896 131.985 74.9949C137.849 72.6155 143.703 70.241 149.29 67.351L150.336 66.8107L151.367 66.2356C152.046 65.849 152.745 65.4871 153.414 65.0806L155.422 63.8462L155.923 63.5389L156.409 63.2117L157.38 62.5475C158.699 61.6949 159.913 60.7034 161.167 59.7616C162.392 58.785 163.557 57.739 164.677 56.6485C166.923 54.4624 168.955 52.0532 170.72 49.4606C172.49 46.868 174.002 44.0919 175.167 41.1721C176.331 38.2523 177.174 35.1938 177.566 32.0658C177.977 28.9428 177.948 25.7504 177.432 22.6224" fill="#0C7B6E"/>
<path d="M118.794 104.357C119.562 107.336 127.038 107.99 135.49 105.814C143.947 103.638 150.173 99.4589 149.405 96.4746C148.641 93.4954 141.166 92.8411 132.709 95.0173C124.257 97.1935 118.026 101.372 118.794 104.357Z" fill="#192C4A"/>
<path d="M156.82 152.218C157.068 150.968 157.653 149.774 158.416 148.713C159.189 147.657 160.146 146.71 161.237 145.957C162.327 145.198 163.532 144.593 164.806 144.172C166.085 143.746 167.443 143.548 168.811 143.557C170.179 143.582 171.572 143.825 172.846 144.4C174.11 144.955 175.196 145.719 176.188 146.532C177.189 147.345 178.141 148.262 178.909 149.333C179.667 150.393 180.257 151.633 180.352 152.912C179.786 151.767 178.993 150.849 178.096 150.056C177.199 149.258 176.212 148.579 175.181 147.945C174.14 147.315 173.109 146.725 172.053 146.338C171.791 146.249 171.528 146.155 171.265 146.086L170.447 145.917C170.179 145.853 169.897 145.848 169.619 145.808C169.342 145.763 169.059 145.773 168.777 145.768L168.355 145.753C168.216 145.763 168.073 145.773 167.934 145.783C167.651 145.808 167.364 145.803 167.086 145.863C166.804 145.902 166.516 145.937 166.238 145.986C165.956 146.056 165.678 146.12 165.396 146.18C164.28 146.472 163.19 146.899 162.149 147.434C161.098 147.964 160.121 148.648 159.224 149.437C158.322 150.23 157.514 151.147 156.82 152.218" fill="#E57E67"/>
<path d="M207.204 131.378C216.296 122.827 201.489 113.74 192.417 118.598C186.573 121.731 185.537 129.484 191.5 133.054C193.666 134.347 196.348 134.793 198.931 134.635C201.994 134.446 205.063 133.391 207.204 131.378Z" fill="white"/>
<path d="M205.901 124.596C205.901 128.656 202.61 131.948 198.55 131.948C194.485 131.948 191.193 128.656 191.193 124.596C191.193 120.531 194.485 117.24 198.55 117.24C202.61 117.24 205.901 120.531 205.901 124.596Z" fill="#192C4A"/>
<path d="M197.598 123.104C197.598 124.458 196.502 125.553 195.144 125.553C193.791 125.553 192.695 124.458 192.695 123.104C192.695 121.751 193.791 120.65 195.144 120.65C196.502 120.65 197.598 121.751 197.598 123.104Z" fill="white"/>
<path d="M184.819 125.122C185.82 122.529 187.838 120.333 190.267 118.792C192.706 117.255 195.611 116.363 198.57 116.333C201.529 116.298 204.454 117.126 206.928 118.613C209.387 120.1 211.454 122.257 212.505 124.834C210.299 123.174 208.073 121.915 205.733 121.072C203.403 120.224 200.994 119.788 198.605 119.808C196.22 119.833 193.821 120.318 191.506 121.216C189.181 122.108 186.985 123.412 184.819 125.122" fill="#192C4A"/>
<path d="M144.169 163C147.976 165.325 151.877 167.09 155.912 168.384C159.933 169.673 164.067 170.51 168.142 170.614C168.652 170.649 169.158 170.614 169.669 170.619C170.174 170.614 170.69 170.56 171.2 170.535C171.711 170.5 172.227 170.441 172.737 170.396C173.253 170.332 173.763 170.248 174.279 170.188C176.336 169.876 178.383 169.41 180.411 168.825C182.433 168.235 184.431 167.511 186.384 166.644C188.347 165.781 190.246 164.755 192.125 163.536C190.875 165.399 189.225 166.996 187.42 168.379C185.611 169.762 183.618 170.907 181.531 171.854C179.449 172.796 177.253 173.514 175.003 174.015C174.432 174.134 173.867 174.238 173.292 174.342C172.717 174.422 172.147 174.511 171.567 174.575C170.982 174.62 170.402 174.684 169.817 174.699L168.93 174.724C168.638 174.739 168.345 174.734 168.053 174.719C163.343 174.595 158.817 173.341 154.703 171.368C152.651 170.372 150.698 169.182 148.908 167.794C147.123 166.396 145.483 164.819 144.169 163" fill="#EB4447"/>
<path d="M129.739 131.378C120.648 122.827 135.455 113.74 144.527 118.598C150.371 121.731 151.407 129.484 145.444 133.053C143.277 134.352 140.596 134.793 138.013 134.635C134.949 134.446 131.881 133.39 129.739 131.378Z" fill="white"/>
<path d="M131.038 124.596C131.038 128.656 134.334 131.948 138.394 131.948C142.454 131.948 145.75 128.656 145.75 124.596C145.75 120.531 142.454 117.24 138.394 117.24C134.334 117.24 131.038 120.531 131.038 124.596Z" fill="#192C4A"/>
<path d="M131.647 123.104C131.647 124.458 132.748 125.553 134.101 125.553C135.455 125.553 136.55 124.458 136.55 123.104C136.55 121.751 135.455 120.65 134.101 120.65C132.748 120.65 131.647 121.751 131.647 123.104Z" fill="white"/>
<path d="M152.127 125.122C149.96 123.412 147.764 122.108 145.435 121.216C143.125 120.318 140.725 119.833 138.336 119.808C135.951 119.788 133.542 120.224 131.212 121.072C128.873 121.915 126.642 123.174 124.441 124.834C125.492 122.257 127.559 120.1 130.018 118.613C132.486 117.126 135.416 116.298 138.376 116.333C141.335 116.363 144.24 117.255 146.679 118.792C149.108 120.333 151.125 122.529 152.127 125.122" fill="#192C4A"/>
<path d="M117 146.195C115.567 150.215 118.908 155.083 124.47 157.066C130.027 159.054 135.698 157.408 137.136 153.393C138.573 149.378 135.227 144.51 129.665 142.522C124.108 140.534 118.437 142.18 117 146.195Z" fill="#F37379"/>
<path d="M219.945 146.195C221.378 150.215 218.037 155.083 212.475 157.066C206.913 159.054 201.242 157.408 199.809 153.393C198.372 149.378 201.718 144.51 207.275 142.522C212.837 140.534 218.508 142.18 219.945 146.195Z" fill="#F37379"/>
<path d="M278.454 348.398L277.145 315.497C277.145 315.497 274.612 333.393 270.473 336.957C266.339 340.521 237.577 346.361 237.577 346.361L278.454 348.398Z" fill="#EBF7F9"/>
<path d="M121.44 366.065C117.004 362.471 112.508 358.952 108.016 355.427C103.991 352.275 99.9312 349.097 95.3458 346.832C87.0971 342.757 77.6933 341.884 68.5324 341.071C61.5924 340.462 54.4491 339.867 47.7866 341.894C46.9737 342.142 46.0665 342.529 45.8088 343.337C45.4865 344.338 46.3441 345.32 47.2166 345.9C49.4473 347.377 52.1738 347.853 54.811 348.279C59.7582 349.082 64.7055 349.836 69.6676 350.545C58.1025 349.365 45.9525 348.269 35.2698 352.85C34.3676 353.236 33.391 353.762 33.0985 354.699C32.1914 357.599 36.4001 358.417 38.3829 358.654C43.702 359.289 49.2044 359.234 54.2062 361.153C50.1413 361.416 46.0963 361.936 42.0958 362.709C39.295 363.25 36.4397 363.949 34.09 365.565C33.629 365.877 33.1729 366.249 32.9449 366.759C32.4591 367.855 33.2225 369.139 34.1941 369.843C35.8746 371.057 38.0607 371.236 40.1278 371.375C45.3923 371.722 50.637 372.108 55.8966 372.5C53.1503 372.817 50.4189 373.318 47.7371 374.002C45.5212 374.562 43.2062 375.33 41.724 377.075C41.501 377.338 41.2977 377.626 41.2382 377.963C41.1391 378.503 41.4365 379.038 41.7934 379.465C43.122 381.046 45.2684 381.71 47.3306 381.839C49.3928 381.963 51.455 381.636 53.5221 381.611C61.057 381.527 67.194 380.917 74.3769 384.303C79.696 386.816 84.5491 390.222 89.8433 392.79C94.2949 394.946 99.0141 396.493 103.718 398.029C115.596 401.911 127.478 405.792 139.361 409.679C142.087 410.571 144.908 411.473 147.768 411.201C151.565 410.839 155.68 407.036 156.096 403.15C156.552 398.857 152.651 395.109 150.018 392.234C145.795 387.624 141.319 383.252 136.694 379.053C131.751 374.562 126.635 370.264 121.44 366.065" fill="#EBF7F9"/>
<path d="M120.276 354.966C115.398 351.997 110.476 349.102 105.553 346.212C101.146 343.619 96.6946 341.012 91.8465 339.376C83.1317 336.441 73.6933 336.823 64.5076 337.244C57.5478 337.556 50.3896 337.918 44.0543 340.818C43.281 341.175 42.4383 341.676 42.2846 342.514C42.1012 343.545 43.0827 344.407 44.0246 344.868C46.4338 346.033 49.1949 346.142 51.8718 346.212C56.8785 346.35 61.8853 346.435 66.892 346.479C55.2774 346.851 43.0877 347.381 33.1089 353.345C32.2662 353.846 31.3689 354.495 31.2053 355.467C30.6898 358.461 34.9728 358.709 36.9705 358.679C42.3243 358.6 47.7722 357.811 52.9872 359.051C48.9917 359.854 45.0507 360.905 41.1891 362.208C38.4825 363.116 35.751 364.186 33.6343 366.1C33.2179 366.477 32.8164 366.903 32.6578 367.438C32.3257 368.588 33.2527 369.758 34.3085 370.328C36.1328 371.31 38.3238 371.196 40.391 371.057C45.6605 370.7 50.9051 370.383 56.1697 370.07C53.4878 370.75 50.8506 371.612 48.2828 372.644C46.1611 373.501 43.97 374.567 42.7307 376.495C42.5473 376.782 42.3837 377.095 42.3689 377.437C42.3441 377.987 42.7109 378.478 43.1174 378.85C44.6442 380.243 46.865 380.614 48.9272 380.466C50.9844 380.317 52.9872 379.717 55.0295 379.42C62.4851 378.334 68.4883 376.906 76.0579 379.311C81.6644 381.09 86.9289 383.822 92.5157 385.661C97.2151 387.207 102.098 388.105 106.966 389.002C119.255 391.267 131.548 393.538 143.842 395.803C146.663 396.324 149.583 396.839 152.374 396.19C156.096 395.327 159.666 391.01 159.556 387.103C159.437 382.791 155.075 379.593 152.081 377.095C147.283 373.089 142.266 369.352 137.12 365.802C131.623 362.01 125.982 358.436 120.276 354.966" fill="#F89D7D"/>
<path d="M118.844 402.268C119.26 387.034 122.745 371.89 129.06 358.02C129.695 356.617 130.429 355.155 131.727 354.327C133.363 353.281 135.47 353.499 137.393 353.762C153.276 355.958 169.134 358.313 184.962 360.865C208.846 364.722 232.541 369.59 256.296 374.185C259.127 374.736 262.012 375.286 264.872 374.909C276.898 373.333 276.754 357.881 276.903 348.839C277.225 328.614 275.827 308.404 274.434 288.223C283.843 296.546 293.187 305.231 299.746 315.944C303.712 322.418 306.572 329.496 309.224 336.61C320.308 366.284 330.203 398.877 332.552 430.558C333.925 449.039 312.506 462.091 296.623 461.922C270.657 461.65 192.482 443.224 167.627 436.145C151.373 431.515 138.013 428.1 122.423 421.571C121.471 421.174 120.465 420.723 119.919 419.846C119.473 419.127 119.414 418.24 119.379 417.397C119.265 414.77 118.774 404.895 118.844 402.268" fill="white"/>
<path d="M209.817 365.108C214.66 362.089 219.558 359.145 224.445 356.205C239.922 346.901 259.304 346.221 276.947 347.456C277.046 350.014 277.021 352.562 277.125 355.125C277.408 362.327 277.636 369.842 274.637 376.396C273.839 378.136 272.808 379.801 271.395 381.09C270.012 382.354 268.321 383.222 266.611 383.975C261.659 386.171 256.974 387.267 251.665 387.411C246.331 387.559 240.313 389.022 235.559 391.426C229.437 394.519 222.968 397.052 216.643 399.694C207.467 403.526 196.427 404.28 186.667 406.183C183.851 406.734 180.936 407.279 178.135 406.659C174.408 405.831 170.794 401.553 170.863 397.647C170.938 393.329 175.265 390.087 178.235 387.559C182.993 383.504 187.97 379.717 193.076 376.118C198.539 372.271 204.146 368.638 209.817 365.108" fill="#EBF7F9"/>
<path d="M221.021 420.842C220.327 405.624 216.574 390.539 210.011 376.788C209.346 375.395 208.588 373.948 207.274 373.139C205.619 372.128 203.517 372.381 201.598 372.681C170.289 377.581 83.6921 391.853 54.7174 404.692C36.8914 412.589 9.12623 430.266 7.85223 452.98C6.81619 471.48 28.4691 484.145 44.342 483.694C70.3027 482.951 148.13 463.122 172.852 455.592C189.022 450.67 202.317 447.016 217.789 440.205C218.73 439.794 219.732 439.323 220.262 438.44C220.693 437.712 220.738 436.824 220.758 435.977C220.822 433.349 221.14 423.47 221.021 420.842" fill="#EBF7F9"/>
<path d="M209.817 359.551C214.66 356.532 219.558 353.593 224.445 350.648C239.922 341.344 259.304 340.669 276.947 341.899C277.046 344.462 277.021 347.005 277.125 349.568C277.408 356.77 277.636 364.285 274.637 370.839C273.839 372.582 272.808 374.244 271.395 375.538C270.012 376.797 268.321 377.665 266.611 378.418C261.659 380.614 256.974 381.71 251.665 381.859C246.331 382.002 240.313 383.465 235.559 385.869C229.437 388.962 222.968 391.495 216.643 394.138C207.467 397.969 196.427 398.723 186.667 400.627C183.851 401.177 180.936 401.722 178.135 401.102C174.408 400.275 170.794 395.997 170.863 392.09C170.938 387.773 175.265 384.536 178.235 382.002C182.993 377.947 187.97 374.165 193.076 370.561C198.539 366.714 204.146 363.081 209.817 359.551Z" fill="#F89D7D"/>
<path d="M297.827 522.157L244.994 512.704C244.994 512.704 251.909 609.393 280.447 605.74C308.981 602.091 297.827 522.157 297.827 522.157Z" fill="#EBF7F9"/>
<path d="M37.803 522.157L90.6317 512.704C90.6317 512.704 83.7213 609.393 55.1829 605.74C26.6494 602.091 37.803 522.157 37.803 522.157Z" fill="#EBF7F9"/>
<path d="M215.995 415.151C215.306 399.933 211.548 384.853 204.985 371.097C204.321 369.704 203.567 368.257 202.254 367.449C200.598 366.437 198.496 366.69 196.578 366.993C165.268 371.89 78.6664 386.167 49.6917 399.006C31.8707 406.903 4.10556 424.575 2.83157 447.289C1.79056 465.794 23.4484 478.455 39.3213 478.003C65.2771 477.265 143.105 457.431 167.831 449.906C184.001 444.984 197.292 441.325 212.763 434.519C213.71 434.103 214.711 433.632 215.237 432.749C215.673 432.021 215.717 431.133 215.737 430.291C215.802 427.658 216.114 417.779 215.995 415.151" fill="white"/>
<path d="M202.253 367.448C201.426 366.977 200.469 366.809 199.537 366.814C198.595 366.814 197.668 366.967 196.736 367.136L191.149 368.157L179.981 370.199L157.644 374.314C150.208 375.722 142.767 377.095 135.341 378.557C127.911 379.995 120.49 381.457 113.084 383.004C105.673 384.521 98.2816 386.117 90.9153 387.807C83.539 389.473 76.2074 391.302 68.9203 393.29C67.0961 393.771 65.2917 394.321 63.4773 394.841L60.7757 395.679L59.4274 396.101L58.0839 396.542C57.1916 396.849 56.2894 397.122 55.4071 397.449L52.755 398.411L50.1376 399.457C49.2651 399.818 48.4076 400.2 47.545 400.582C40.6595 403.66 34.0218 407.319 27.7163 411.512C33.7393 406.912 40.2728 402.976 47.084 399.6C47.9366 399.179 48.7942 398.768 49.6617 398.376L52.284 397.231L54.9361 396.175C55.8185 395.813 56.7158 395.511 57.6081 395.174L58.9465 394.683L60.2998 394.227L63.0015 393.32C64.8158 392.755 66.6202 392.16 68.4395 391.629C72.0731 390.519 75.7365 389.517 79.4048 388.546C81.234 388.06 83.078 387.604 84.9122 387.128L90.4345 385.77C97.8108 384.01 105.222 382.394 112.638 380.842C120.063 379.33 127.504 377.873 134.955 376.505C142.41 375.157 149.871 373.833 157.346 372.622C164.822 371.389 172.312 370.239 179.802 369.134C183.555 368.598 187.303 368.058 191.055 367.552L196.687 366.804C197.628 366.69 198.585 366.591 199.542 366.645C200.494 366.7 201.455 366.928 202.253 367.448" fill="#EBF7F9"/>
<path d="M78.8931 77.5928C80.3703 73.4436 82.715 69.5968 85.5605 66.1863C88.4307 62.7807 91.7817 59.8014 95.3856 57.2039C98.9795 54.5766 102.836 52.3508 106.762 50.3035C110.703 48.281 114.753 46.4964 118.818 44.7911C122.893 43.1304 126.958 41.4896 130.973 39.7596C135.003 38.0543 138.954 36.2004 142.801 34.163C143.758 33.6474 144.695 33.0971 145.646 32.5667C146.583 32.0165 147.495 31.4266 148.432 30.8714C149.349 30.2865 150.237 29.6619 151.144 29.0571C152.031 28.4275 152.884 27.7533 153.761 27.1089C157.197 24.432 160.315 21.3338 162.982 17.834C160.721 21.6114 157.762 24.9823 154.46 27.9417C153.613 28.6506 152.77 29.3793 151.907 30.0733C151.02 30.7376 150.143 31.4266 149.24 32.071C148.328 32.6956 147.416 33.3301 146.479 33.9299C145.537 34.5099 144.6 35.1048 143.644 35.665C142.682 36.2102 141.72 36.7704 140.749 37.3008C139.767 37.8164 138.791 38.3319 137.804 38.8326L134.82 40.2851L131.816 41.678C127.791 43.4825 123.711 45.1431 119.661 46.8335C115.611 48.4892 111.61 50.244 107.704 52.1723C103.783 54.0809 99.9908 56.2174 96.3721 58.6117C92.7682 61.0308 89.3577 63.7474 86.3685 66.9051C83.3645 70.043 80.8214 73.6369 78.8931 77.5928" fill="#0C7B6E"/>
</svg>
