<svg width="471" height="741" viewBox="0 0 471 741" fill="none" xmlns="http://www.w3.org/2000/svg">
<path d="M74.8995 639.065C74.8995 639.065 0.526493 594.511 20.7415 514.117C40.9565 433.726 70.7467 393.269 39.3117 312.36C7.87678 231.451 35.4421 47.3798 131.013 87.8362C182.472 -37.5781 366.256 -31.5089 399.339 124.244C469.177 144.472 441.609 340.678 403.014 421.587C364.42 502.5 494.429 567.226 410.126 678.478" fill="#4E4E4E"/>
<path d="M236.165 540.931L167.245 544.976C167.245 544.976 0 553.066 0 740.957H470.323C470.323 740.957 452.111 553.066 305.085 546.877C233.407 567.105 236.165 540.931 236.165 540.931Z" fill="white"/>
<path d="M89.386 256.972V313.462C52.034 354.054 34.5114 285.617 45.5812 256.127C47.2055 251.658 49.5566 248.082 52.5493 245.919C75.4123 229.315 89.386 256.972 89.386 256.972Z" fill="#FFB3AC"/>
<path d="M89.386 273.624V313.46C52.034 354.056 34.5114 285.616 45.5812 256.126C45.7109 256.081 45.8371 256.081 45.9668 256.032C58.3196 253.493 71.9078 255.75 81.6945 264.452C84.6872 267.085 87.2055 270.187 89.386 273.624Z" fill="#FF887B"/>
<path d="M382.358 256.972V313.462C419.71 354.054 437.229 285.617 426.163 256.127C424.535 251.658 422.187 248.082 419.195 245.919C396.332 229.315 382.358 256.972 382.358 256.972Z" fill="#FFB3AC"/>
<path d="M382.358 273.624V313.46C419.71 354.056 437.229 285.616 426.163 256.126C426.033 256.081 425.903 256.081 425.777 256.032C413.424 253.493 399.836 255.75 390.049 264.452C387.057 267.085 384.538 270.187 382.358 273.624Z" fill="#FF887B"/>
<path d="M175.151 409.452L167.244 544.977C167.244 544.977 175.219 607.682 235.557 605.661C295.895 603.637 305.084 546.877 305.084 546.877L295.895 417.542" fill="#FFB3AC"/>
<path d="M180.115 450.061C180.115 450.061 188.387 497.402 238.017 496.493C287.65 495.584 290.131 454.613 290.131 454.613L180.115 450.061Z" fill="#FF887B"/>
<path d="M82.7034 249.655C82.7034 249.655 64.3072 428.761 187.143 466.04C309.982 503.319 417.916 400.3 388.14 234.681C338.343 224.529 337.203 159.191 337.203 159.191C337.203 159.191 167.245 259.585 153.644 159.191C149.921 216.545 82.7034 249.655 82.7034 249.655Z" fill="#FFB3AC"/>
<path d="M180.528 259.864C180.528 269.028 175.75 276.457 169.86 276.457C163.967 276.457 159.193 269.028 159.193 259.864C159.193 250.7 163.967 243.271 169.86 243.271C175.75 243.271 180.528 250.7 180.528 259.864Z" fill="#442D50"/>
<path d="M292.53 259.864C292.53 269.028 297.304 276.457 303.197 276.457C309.091 276.457 313.865 269.028 313.865 259.864C313.865 250.7 309.091 243.271 303.197 243.271C297.304 243.271 292.53 250.7 292.53 259.864Z" fill="#442D50"/>
<path d="M241.053 238.584C231.761 238.745 209.874 314.363 214.494 321.991C219.114 329.615 264.148 330.884 267.611 320.717C271.075 310.551 250.29 238.422 241.053 238.584Z" fill="#FF887B"/>
<path d="M135.398 230.243C134.589 230.243 133.781 229.931 133.132 229.296C131.73 227.918 131.597 225.563 132.839 224.012C133.61 223.051 152.115 200.667 189.095 215.337C190.866 216.043 191.784 218.195 191.146 220.148C190.508 222.097 188.556 223.103 186.778 222.405C154.354 209.526 138.599 228.192 137.944 228.996C137.268 229.822 136.333 230.243 135.398 230.243Z" fill="#4E4E4E"/>
<path d="M339.704 230.254C338.766 230.254 337.828 229.83 337.155 229C336.5 228.196 320.742 209.53 288.321 222.405C286.546 223.103 284.594 222.097 283.953 220.148C283.315 218.195 284.233 216.043 286.007 215.336C322.984 200.659 341.492 223.054 342.264 224.012C343.509 225.567 343.373 227.941 341.96 229.315C341.312 229.942 340.506 230.254 339.704 230.254Z" fill="#4E4E4E"/>
<path d="M241.165 272.146C270.17 272.849 288.894 310.793 337.114 328.11C374.105 341.394 392.835 378.444 349.392 433.105C303.164 491.269 168.355 494.672 120.366 429.86C75.9504 369.874 124.806 332.129 150.01 323.299C183.099 311.709 217.759 271.579 241.165 272.146Z" fill="white"/>
<path d="M139.364 341.117C138.78 341.117 138.21 340.787 137.893 340.194L83.8646 239.541C83.3869 238.647 83.6565 237.494 84.4686 236.968C85.2808 236.446 86.3284 236.735 86.8061 237.629L140.831 338.286C141.309 339.176 141.043 340.329 140.23 340.858C139.957 341.035 139.657 341.117 139.364 341.117Z" fill="white"/>
<path d="M330.275 341.117C329.972 341.117 329.664 341.027 329.385 340.84C328.579 340.299 328.33 339.142 328.822 338.256L391.681 225.517C392.173 224.63 393.224 224.36 394.029 224.897C394.831 225.442 395.083 226.598 394.592 227.481L331.732 340.224C331.412 340.802 330.849 341.117 330.275 341.117Z" fill="white"/>
</svg>
